<svg xmlns="http://www.w3.org/2000/svg" width="412.5" viewBox="0 0 412.5 315" height="315" version="1.0"><defs><clipPath id="a"><path d="M 139 202.773438 L 411 202.773438 L 411 277 L 139 277 Z M 139 202.773438"/></clipPath></defs><g clip-path="url(#a)"><path fill="#FFF" d="M 142.921875 205.023438 C 142.78125 205.214844 142.761719 205.425781 142.851562 205.648438 C 142.304688 206.277344 141.046875 205.792969 140.835938 206.945312 C 138.992188 208.777344 139.691406 210.652344 140.785156 212.503906 C 143.867188 217.6875 147.726562 222.265625 151.871094 226.609375 C 166.730469 242.148438 184.152344 253.871094 203.835938 262.628906 C 238.195312 277.929688 273.660156 280.042969 310.015625 272.574219 C 326.871094 269.109375 342.800781 262.773438 358.441406 255.695312 C 367.632812 251.535156 376.542969 246.835938 385.574219 242.351562 C 385.828125 242.046875 386.070312 241.742188 386.324219 241.441406 C 386.769531 241.417969 387.265625 241.269531 387.628906 241.429688 C 387.628906 241.429688 387.628906 241.429688 387.640625 241.441406 C 387.925781 241.570312 387.730469 241.976562 387.40625 242.136719 C 385.65625 245.683594 383.210938 248.738281 380.605469 251.664062 C 378.824219 253.671875 377.242188 255.746094 376.308594 258.277344 C 372.4375 262.558594 372.304688 267.144531 375.753906 271.136719 C 386.503906 266.992188 393.0625 258.480469 399.023438 249.277344 C 401.242188 245.855469 403.683594 242.59375 406.078125 239.292969 C 411.8125 231.394531 410.535156 232.214844 407.363281 224.9375 C 406.65625 223.308594 405.582031 221.871094 404.363281 220.554688 C 403.917969 220.066406 403.460938 219.660156 402.761719 219.660156 C 401.851562 217.851562 400.148438 217.828125 398.484375 217.890625 C 393.550781 218.074219 388.625 218.316406 383.6875 218.539062 C 382.652344 217.972656 381.578125 218.144531 380.503906 218.367188 C 379.492188 217.757812 378.40625 217.949219 377.332031 218.09375 C 376.683594 217.546875 375.875 217.75 375.132812 217.648438 C 365.109375 216.238281 355.390625 213.730469 346.125 209.566406 C 345.425781 209.253906 344.707031 209 344 208.71875 C 343.15625 208.375 342.203125 207.976562 341.535156 208.769531 C 341.027344 209.367188 341.171875 210.449219 341.617188 210.945312 C 343.582031 213.152344 343.875 216.199219 345.589844 218.496094 C 346.347656 219.519531 347.464844 220.148438 348.609375 220.765625 C 357.417969 225.574219 366.832031 228.691406 376.59375 230.859375 C 377.464844 231.050781 378.386719 231.113281 379.1875 231.476562 C 380.121094 231.902344 379.855469 232.691406 379.390625 233.390625 C 378.378906 233.269531 377.65625 233.675781 377.191406 234.554688 C 376.25 234.625 375.335938 234.769531 374.859375 235.75 C 374.628906 235.636719 374.476562 235.710938 374.402344 235.953125 C 373.503906 235.992188 372.671875 236.175781 372.183594 237.054688 C 371.578125 237.21875 370.9375 237.300781 370.371094 237.5625 C 364.136719 240.417969 357.953125 243.375 351.691406 246.15625 C 346.003906 248.6875 340.246094 251.039062 334.523438 253.457031 C 332.929688 253.914062 331.328125 254.308594 329.769531 254.824219 C 314.542969 259.753906 298.957031 262.78125 282.953125 263.472656 C 277.238281 263.714844 271.519531 263.785156 265.804688 263.925781 C 264.71875 263.320312 263.605469 263.5625 262.480469 263.785156 C 261.457031 263.175781 260.390625 263.390625 259.316406 263.59375 C 258.386719 262.945312 257.371094 263.21875 256.367188 263.320312 C 255.789062 262.832031 255.152344 262.863281 254.492188 263.097656 C 254.269531 262.933594 254.046875 262.925781 253.8125 263.074219 C 253.164062 262.550781 252.363281 262.730469 251.636719 262.609375 C 248.027344 261.992188 244.328125 262.023438 240.789062 260.960938 C 240.476562 261.253906 239.433594 261.40625 240.707031 261.941406 C 241.558594 262.304688 241.609375 262.558594 241.378906 262.773438 C 241.175781 262.953125 240.757812 263.105469 240.457031 263.257812 C 229.125 260.949219 218.207031 257.304688 207.527344 252.941406 C 206.574219 252.445312 205.609375 251.949219 204.65625 251.453125 C 198.960938 248.488281 193.253906 245.519531 187.558594 242.5625 C 187.449219 242.320312 187.285156 242.160156 187.082031 242.066406 C 186.941406 242.007812 186.789062 241.976562 186.617188 241.976562 C 186.433594 241.582031 186.121094 241.398438 185.695312 241.410156 C 185.523438 241.003906 185.207031 240.824219 184.773438 240.84375 C 184.609375 240.425781 184.296875 240.246094 183.851562 240.265625 C 183.6875 239.851562 183.382812 239.648438 182.9375 239.679688 C 182.785156 239.253906 182.480469 239.0625 182.035156 239.089844 L 182.027344 239.082031 C 181.882812 238.664062 181.578125 238.464844 181.144531 238.492188 L 181.125 238.484375 C 180.851562 238.269531 180.554688 238.070312 180.25 237.886719 L 180.222656 237.867188 C 180.078125 237.449219 179.796875 237.25 179.351562 237.269531 L 179.320312 237.25 C 179.175781 236.832031 178.894531 236.628906 178.449219 236.652344 L 178.417969 236.628906 C 178.417969 236.628906 178.40625 236.621094 178.40625 236.621094 C 178.40625 236.621094 178.417969 236.628906 178.417969 236.628906 C 178.285156 236.207031 177.992188 236.003906 177.546875 236.023438 L 177.523438 236.011719 C 177.394531 235.589844 177.101562 235.386719 176.652344 235.40625 L 176.644531 235.394531 C 176.5 234.96875 176.207031 234.757812 175.761719 234.769531 C 173.167969 232.671875 170.582031 230.578125 167.988281 228.480469 C 166.296875 227.8125 165.128906 226.445312 163.824219 225.28125 C 163.871094 225.078125 163.964844 224.917969 164.074219 224.773438 C 164.25 224.550781 164.472656 224.398438 164.773438 224.308594 C 163.882812 223.328125 163.0625 222.273438 161.773438 221.757812 C 161.371094 221.636719 160.996094 221.464844 160.699219 221.140625 C 161.054688 221.34375 161.410156 221.554688 161.773438 221.757812 C 161.550781 221.382812 161.296875 221.058594 160.824219 221.128906 C 160.699219 220.472656 160.285156 220.078125 159.675781 219.835938 C 159.605469 219.410156 159.382812 219.144531 158.925781 219.125 C 158.746094 218.71875 158.5 218.40625 158.023438 218.355469 C 157.964844 218.144531 157.851562 217.980469 157.628906 217.890625 C 156.929688 216.777344 156.039062 215.867188 154.921875 215.167969 C 154.386719 214.40625 153.871094 213.628906 152.988281 213.210938 C 152.824219 212.605469 152.328125 212.28125 151.871094 211.925781 C 149.765625 208.929688 147.121094 206.339844 145.507812 202.785156 C 144.625 203.835938 143.144531 203.65625 142.921875 205.023438 Z M 374.535156 236.703125 C 374.527344 236.703125 374.527344 236.703125 374.515625 236.703125 C 374.515625 236.710938 374.527344 236.710938 374.527344 236.710938 C 374.515625 236.710938 374.503906 236.703125 374.503906 236.703125 C 374.503906 236.703125 374.515625 236.703125 374.515625 236.703125 C 374.515625 236.691406 374.515625 236.679688 374.503906 236.671875 C 374.527344 236.679688 374.527344 236.691406 374.535156 236.703125 Z M 176.492188 237.867188 C 176.550781 237.925781 176.613281 237.988281 176.675781 238.046875 C 176.652344 238.039062 176.632812 238.027344 176.613281 238.019531 C 176.550781 237.976562 176.492188 237.9375 176.429688 237.886719 C 176.441406 237.886719 176.460938 237.875 176.492188 237.867188 Z M 187.5 242.5625 C 187.5 242.574219 187.488281 242.574219 187.488281 242.582031 C 187.46875 242.605469 187.457031 242.632812 187.4375 242.65625 L 187.367188 242.726562 L 187.488281 242.574219 C 187.488281 242.5625 187.476562 242.5625 187.476562 242.554688 C 187.476562 242.5625 187.488281 242.5625 187.5 242.5625 Z M 176.117188 238.007812 C 176.21875 237.96875 176.320312 237.925781 176.410156 237.894531 C 176.472656 237.9375 176.53125 237.976562 176.59375 238.019531 C 176.449219 237.945312 176.289062 237.9375 176.117188 238.007812 Z M 176.988281 238.3125 C 177.058594 238.363281 177.128906 238.414062 177.191406 238.464844 C 177.191406 238.472656 177.199219 238.472656 177.199219 238.484375 C 177.128906 238.421875 177.058594 238.363281 176.988281 238.3125 Z M 144.859375 211.671875 C 144.847656 211.671875 144.839844 211.664062 144.828125 211.664062 C 144.828125 211.664062 144.820312 211.652344 144.820312 211.652344 C 144.820312 211.644531 144.808594 211.632812 144.808594 211.625 C 144.828125 211.632812 144.839844 211.652344 144.859375 211.671875 Z M 145.800781 213 C 145.800781 213.019531 145.800781 213.039062 145.820312 213.050781 C 145.820312 213.03125 145.800781 213.011719 145.800781 213 Z M 160.042969 221.070312 C 159.972656 221.101562 159.898438 221.140625 159.828125 221.199219 C 159.820312 221.148438 159.808594 221.101562 159.796875 221.050781 C 159.878906 221.058594 159.960938 221.058594 160.042969 221.070312 Z M 158.226562 218.832031 C 158.117188 218.75 158.035156 218.628906 157.984375 218.476562 C 157.984375 218.476562 157.984375 218.476562 157.996094 218.476562 C 158.054688 218.621094 158.125 218.742188 158.226562 218.832031 Z M 158.226562 218.832031"/></g><path fill="#FFF" d="M 180.191406 237.867188 C 180.484375 238.070312 180.777344 238.261719 181.0625 238.464844 C 180.921875 238.039062 180.625 237.84375 180.191406 237.867188 Z M 180.191406 237.867188"/><g fill="#FFF"><g><g><path d="M 13.410156 -67.679688 L 2.078125 0 L 7.070312 0 L 9.148438 -12.578125 L 22.558594 -12.578125 L 24.640625 0 L 34.722656 0 L 22.144531 -75.269531 L 12.164062 -75.269531 Z M 21.730469 -17.570312 L 9.980469 -17.570312 L 15.90625 -52.710938 Z M 21.730469 -17.570312" transform="translate(59.61 80.693)"/></g></g></g><g fill="#FFF"><g><g><path d="M 6.652344 -52.710938 L 6.652344 0 L 16.738281 0 C 29.734375 -0.105469 36.285156 -10.1875 36.285156 -30.148438 C 36.285156 -50.109375 29.734375 -60.089844 16.738281 -60.195312 L 4.160156 -60.195312 Z M 16.738281 -4.46875 L 16.738281 -55.828125 C 19.960938 -55.621094 22.351562 -53.542969 23.910156 -49.488281 C 25.472656 -45.328125 26.304688 -38.882812 26.304688 -30.148438 C 26.304688 -21.207031 25.472656 -14.761719 23.808594 -10.707031 C 22.144531 -6.652344 19.855469 -4.574219 16.738281 -4.46875 Z M 16.738281 -4.46875" transform="translate(96.411 80.693)"/></g></g></g><g fill="#FFF"><g><g><path d="M 6.652344 -52.710938 L 6.652344 0 L 16.738281 0 C 29.734375 -0.105469 36.285156 -10.1875 36.285156 -30.148438 C 36.285156 -50.109375 29.734375 -60.089844 16.738281 -60.195312 L 4.160156 -60.195312 Z M 16.738281 -4.46875 L 16.738281 -55.828125 C 19.960938 -55.621094 22.351562 -53.542969 23.910156 -49.488281 C 25.472656 -45.328125 26.304688 -38.882812 26.304688 -30.148438 C 26.304688 -21.207031 25.472656 -14.761719 23.808594 -10.707031 C 22.144531 -6.652344 19.855469 -4.574219 16.738281 -4.46875 Z M 16.738281 -4.46875" transform="translate(135.811 80.693)"/></g></g></g><g fill="#FFF"><g><g><path d="M 6.652344 -67.679688 L 6.652344 0 L 16.738281 0 L 16.738281 -30.148438 C 20.066406 -30.148438 22.976562 -30.460938 25.472656 -31.191406 C 27.964844 -31.917969 30.046875 -33.164062 31.710938 -34.933594 C 33.371094 -36.699219 34.722656 -38.988281 35.554688 -41.898438 C 36.386719 -44.808594 36.804688 -48.34375 36.804688 -52.710938 C 36.804688 -56.867188 36.386719 -60.507812 35.554688 -63.417969 C 34.722656 -66.328125 33.371094 -68.617188 31.710938 -70.382812 C 30.046875 -72.046875 27.964844 -73.296875 25.472656 -74.128906 C 22.976562 -74.855469 20.066406 -75.269531 16.738281 -75.269531 L 4.160156 -75.269531 Z M 16.738281 -36.285156 L 16.738281 -69.03125 C 18.609375 -69.03125 20.167969 -68.511719 21.417969 -67.578125 C 22.664062 -66.539062 23.601562 -65.289062 24.328125 -63.835938 C 24.953125 -62.273438 25.472656 -60.507812 25.785156 -58.636719 C 25.992188 -56.660156 26.199219 -54.6875 26.199219 -52.710938 C 26.199219 -50.632812 25.992188 -48.550781 25.785156 -46.679688 C 25.472656 -44.703125 24.953125 -42.9375 24.328125 -41.480469 C 23.601562 -39.921875 22.664062 -38.675781 21.417969 -37.738281 C 20.167969 -36.804688 18.609375 -36.285156 16.738281 -36.285156 Z M 16.738281 -36.285156" transform="translate(2.435 184.193)"/></g></g></g><g fill="#FFF"><g><g><path d="M 5.71875 -60.195312 L 5.71875 0 L 28.277344 0 L 28.277344 -4.992188 L 15.800781 -4.992188 L 15.800781 -60.195312 Z M 5.71875 -60.195312" transform="translate(42.354 184.193)"/></g></g></g><g fill="#FFF"><g><g><path d="M 10.8125 -52.710938 L 2.078125 0 L 7.070312 0 L 9.148438 -12.578125 L 17.570312 -12.578125 L 19.648438 0 L 29.628906 0 L 19.648438 -60.195312 L 9.566406 -60.195312 Z M 16.738281 -17.570312 L 9.980469 -17.570312 L 13.410156 -37.636719 Z M 16.738281 -17.570312" transform="translate(73.75 184.193)"/></g></g></g><g fill="#FFF"><g><g><path d="M 13.410156 -26.304688 L 13.410156 0 L 23.390625 0 L 23.390625 -26.304688 L 34.722656 -60.195312 L 29.628906 -60.195312 L 20.898438 -33.894531 C 20.6875 -34.515625 20.273438 -35.453125 19.855469 -36.90625 C 19.335938 -38.257812 18.816406 -39.820312 18.296875 -41.585938 C 17.675781 -43.25 17.050781 -45.121094 16.425781 -46.992188 C 15.800781 -48.863281 15.179688 -50.734375 14.660156 -52.503906 C 14.035156 -54.164062 13.515625 -55.726562 13.097656 -57.078125 C 12.683594 -58.429688 12.371094 -59.46875 12.164062 -60.195312 L 2.078125 -60.195312 Z M 13.410156 -26.304688" transform="translate(105.456 184.193)"/></g></g></g><g fill="#FFF"><g><g><path d="M 5.199219 -60.195312 L 5.199219 0 L 27.757812 0 L 27.757812 -4.992188 L 15.28125 -4.992188 L 15.28125 -32.644531 L 22.769531 -32.644531 L 25.261719 -37.636719 L 15.28125 -37.636719 L 15.28125 -55.207031 L 25.261719 -55.207031 L 27.757812 -60.195312 Z M 5.199219 -60.195312" transform="translate(142.257 184.193)"/></g></g></g><g fill="#FFF"><g><g><path d="M 6.652344 -52.710938 L 6.652344 0 L 16.738281 0 L 16.738281 -25.054688 C 17.363281 -25.054688 17.777344 -25.054688 18.195312 -25.160156 L 24.222656 0 L 34.308594 0 L 27.65625 -27.34375 C 29.839844 -28.589844 31.5 -30.359375 32.644531 -32.851562 C 33.683594 -35.242188 34.308594 -38.46875 34.308594 -42.625 C 34.308594 -45.953125 33.894531 -48.65625 33.164062 -50.941406 C 32.4375 -53.230469 31.292969 -54.996094 29.839844 -56.347656 C 28.382812 -57.699219 26.511719 -58.636719 24.328125 -59.261719 C 22.144531 -59.882812 19.648438 -60.195312 16.738281 -60.195312 L 4.160156 -60.195312 Z M 16.738281 -29.941406 L 16.738281 -55.414062 C 18.402344 -55.308594 19.753906 -54.894531 20.792969 -54.164062 C 21.832031 -53.4375 22.769531 -52.503906 23.390625 -51.253906 C 24.015625 -50.007812 24.433594 -48.65625 24.640625 -47.199219 C 24.847656 -45.746094 25.054688 -44.183594 25.054688 -42.625 C 25.054688 -40.960938 24.847656 -39.402344 24.640625 -37.945312 C 24.433594 -36.492188 24.015625 -35.140625 23.390625 -33.894531 C 22.769531 -32.644531 21.832031 -31.710938 20.792969 -30.980469 C 19.753906 -30.253906 18.402344 -29.941406 16.738281 -29.941406 Z M 16.738281 -29.941406" transform="translate(173.132 184.193)"/></g></g></g></svg>