<svg xmlns="http://www.w3.org/2000/svg" width="375" viewBox="0 0 375 300" height="300" version="1.0"><defs><clipPath id="a"><path d="M 57.070312 131.199219 L 143.320312 131.199219 L 143.320312 158.199219 L 57.070312 158.199219 Z M 57.070312 131.199219"/></clipPath><clipPath id="b"><path d="M 224.515625 131.199219 L 310.71875 131.199219 L 310.71875 158.199219 L 224.515625 158.199219 Z M 224.515625 131.199219"/></clipPath><clipPath id="c"><path d="M 149.597656 127.011719 L 184.847656 127.011719 L 184.847656 162.261719 L 149.597656 162.261719 Z M 149.597656 127.011719"/></clipPath></defs><g clip-path="url(#a)"><path fill="#FF1616" d="M 127.722656 158.199219 L 57.121094 158.199219 L 72.667969 131.199219 L 143.273438 131.199219 Z M 58.414062 157.457031 L 127.320312 157.457031 L 142 131.945312 L 73.09375 131.945312 Z M 58.414062 157.457031"/></g><path fill="#FF1616" d="M 125.9375 155.039062 L 62.5625 155.058594 L 74.453125 134.363281 L 137.851562 134.363281 Z M 125.9375 155.039062"/><g fill="#FFF"><g><g><path d="M -15.359375 -87.246094 L 8.347656 -2.332031 L 21 -5.863281 L 10.441406 -43.691406 L 13.832031 -44.636719 L 33.523438 -9.359375 L 46.175781 -12.890625 L 24.792969 -51.210938 C 27.503906 -54.078125 29.148438 -57.769531 29.75 -62.15625 C 30.222656 -66.507812 29.605469 -72.242188 27.710938 -79.023438 C 26.253906 -84.242188 24.460938 -88.660156 22.394531 -92.023438 C 20.332031 -95.382812 17.835938 -97.78125 15.128906 -99.414062 C 12.460938 -100.917969 9.414062 -101.753906 5.992188 -101.925781 C 2.605469 -101.964844 -1.191406 -101.464844 -5.363281 -100.300781 L -21.148438 -95.894531 Z M 8.292969 -51.386719 L -3.179688 -92.476562 C -0.832031 -93.128906 1.308594 -93.023438 3.199219 -92.289062 C 5.128906 -91.421875 6.742188 -90.183594 8.164062 -88.609375 C 9.492188 -86.875 10.761719 -84.835938 11.808594 -82.597656 C 12.761719 -80.195312 13.714844 -77.789062 14.40625 -75.308594 C 15.136719 -72.699219 15.601562 -70.019531 15.996094 -67.597656 C 16.296875 -65.011719 16.265625 -62.613281 15.992188 -60.566406 C 15.625 -58.355469 14.890625 -56.460938 13.652344 -54.851562 C 12.414062 -53.242188 10.640625 -52.042969 8.292969 -51.386719 Z M 8.292969 -51.386719" transform="translate(111.477 111.154)"/></g></g></g><g fill="#FFF"><g><g><path d="M -0.765625 -78.761719 L 7.40625 -0.777344 L 20.472656 -2.144531 L 12.300781 -80.132812 Z M -0.765625 -78.761719" transform="translate(154.31 99.517)"/></g></g></g><g fill="#FFF"><g><g><path d="M 12.875 -69.09375 L 8.652344 0.523438 L 15.140625 0.917969 L 18.304688 -51.261719 L 34.742188 2.109375 L 44.472656 2.699219 L 49.222656 -75.570312 L 42.734375 -75.964844 L 39.617188 -24.597656 L 23.132812 -77.152344 L 10.15625 -77.941406 Z M 12.875 -69.09375" transform="translate(173.402 95.798)"/></g></g></g><g fill="#FFF"><g><g><path d="M 29.066406 8.203125 C 31.933594 9.011719 34.875 9.558594 37.699219 9.511719 C 40.527344 9.46875 43.371094 8.863281 46.308594 7.4375 L 56.386719 -28.273438 L 42.859375 -28.714844 L 34.214844 1.917969 C 32.953125 2.402344 31.707031 2.332031 30.535156 2.003906 C 28.707031 1.488281 27.273438 0.0976562 26.484375 -2.09375 C 25.5625 -4.324219 25.054688 -7 24.988281 -10.257812 C 24.882812 -13.382812 25.1875 -16.953125 25.769531 -21.011719 C 26.316406 -24.9375 27.289062 -28.886719 28.390625 -32.796875 C 29.496094 -36.707031 30.691406 -40.449219 32.28125 -44.082031 C 33.867188 -47.714844 35.476562 -50.917969 37.363281 -53.621094 C 39.085938 -56.234375 40.921875 -58.246094 42.871094 -59.667969 C 44.6875 -61.125 46.640625 -61.558594 48.59375 -61.007812 C 50.421875 -60.492188 51.894531 -59.230469 52.886719 -57.261719 C 53.75 -55.332031 54.277344 -53.210938 54.542969 -51.167969 L 58.148438 -63.941406 C 56.953125 -64.699219 55.726562 -65.328125 54.457031 -65.824219 C 53.191406 -66.324219 51.792969 -66.859375 50.359375 -67.261719 C 46.449219 -68.367188 42.746094 -68.707031 39.253906 -68.289062 C 35.757812 -67.867188 32.429688 -66.554688 29.535156 -64.273438 C 26.472656 -61.902344 23.675781 -58.46875 21.273438 -53.941406 C 18.738281 -49.449219 16.5625 -43.734375 14.578125 -36.695312 C 12.554688 -29.527344 11.382812 -23.382812 11.195312 -18.230469 C 10.875 -13.113281 11.46875 -8.726562 12.875 -5.230469 C 14.113281 -1.644531 16.261719 1.210938 19.023438 3.398438 C 21.78125 5.585938 25.15625 7.097656 29.066406 8.203125 Z M 29.066406 8.203125" transform="translate(214.162 97.058)"/></g></g></g><g fill="#FFF"><g><g><path d="M 3.222656 -37.300781 L 3.222656 0 L 9.46875 0 L 9.46875 -20.230469 L 14.109375 -20.230469 L 15.65625 -23.320312 L 9.46875 -23.320312 L 9.46875 -34.210938 L 15.65625 -34.210938 L 17.203125 -37.300781 Z M 3.222656 -37.300781" transform="translate(188.336 164.146)"/></g></g></g><g fill="#FFF"><g><g><path d="M 30.539062 -92.195312 L 7.140625 1.777344 L 19.730469 4.914062 L 29.878906 -35.84375 L 39.222656 -33.515625 L 43.890625 -38.972656 L 31.429688 -42.074219 L 41.578125 -82.832031 L 54.039062 -79.726562 L 58.707031 -85.183594 Z M 30.539062 -92.195312" transform="translate(97.769 272.757)"/></g></g></g><g fill="#FFF"><g><g><path d="M 15.199219 -76.296875 L 7.320312 0.75 L 20.226562 2.070312 L 28.105469 -74.976562 Z M 15.199219 -76.296875" transform="translate(144.55 283.386)"/></g></g></g><g fill="#FFF"><g><g><path d="M 4.535156 -68.207031 L 8.546875 -0.507812 L 21.496094 -1.273438 L 19.589844 -33.453125 C 20.390625 -33.5 20.925781 -33.535156 21.453125 -33.699219 L 31.113281 -1.84375 L 44.0625 -2.613281 L 33.4375 -37.222656 C 36.144531 -38.992188 38.148438 -41.386719 39.425781 -44.679688 C 40.582031 -47.832031 41.136719 -52.015625 40.820312 -57.359375 C 40.566406 -61.632812 39.828125 -65.070312 38.71875 -67.953125 C 37.609375 -70.835938 36.003906 -73.019531 34.03125 -74.644531 C 32.0625 -76.269531 29.585938 -77.328125 26.734375 -77.964844 C 23.882812 -78.597656 20.65625 -78.808594 16.914062 -78.585938 L 0.757812 -77.628906 Z M 19.21875 -39.730469 L 17.28125 -72.445312 C 19.425781 -72.4375 21.191406 -72.007812 22.582031 -71.152344 C 23.972656 -70.296875 25.246094 -69.164062 26.140625 -67.609375 C 27.039062 -66.054688 27.675781 -64.351562 28.054688 -62.496094 C 28.429688 -60.644531 28.816406 -58.65625 28.933594 -56.652344 C 29.0625 -54.515625 28.914062 -52.5 28.757812 -50.613281 C 28.601562 -48.726562 28.171875 -46.960938 27.464844 -45.3125 C 26.757812 -43.660156 25.628906 -42.386719 24.347656 -41.375 C 23.066406 -40.359375 21.355469 -39.855469 19.21875 -39.730469 Z M 19.21875 -39.730469" transform="translate(180.727 287.266)"/></g></g></g><g fill="#FFF"><g><g><path d="M -12.332031 -76.753906 L 6.488281 -1.625 L 34.644531 -8.679688 L 33.082031 -14.90625 L 17.511719 -11.007812 L 8.867188 -45.519531 L 18.210938 -47.859375 L 19.761719 -54.867188 L 7.308594 -51.75 L 1.8125 -73.675781 L 14.269531 -76.796875 L 15.824219 -83.804688 Z M -12.332031 -76.753906" transform="translate(239.978 282.366)"/></g></g></g><g clip-path="url(#b)"><path fill="#FF1616" d="M 240.113281 158.199219 L 310.714844 158.199219 L 295.167969 131.199219 L 224.566406 131.199219 Z M 309.421875 157.457031 L 240.515625 157.457031 L 225.835938 131.945312 L 294.746094 131.945312 Z M 309.421875 157.457031"/></g><path fill="#FF1616" d="M 241.898438 155.039062 L 305.273438 155.058594 L 293.382812 134.363281 L 229.984375 134.363281 Z M 241.898438 155.039062"/><g clip-path="url(#c)"><path fill="#FF1616" d="M 183.472656 137.78125 C 182.59375 135.683594 181.324219 133.800781 179.703125 132.175781 C 178.082031 130.554688 176.195312 129.285156 174.097656 128.40625 C 171.910156 127.472656 169.601562 127.011719 167.222656 127.011719 L 167.222656 132.246094 C 170.535156 132.246094 173.65625 133.535156 175.984375 135.878906 C 178.328125 138.222656 179.613281 141.324219 179.613281 144.636719 C 179.613281 147.953125 178.328125 151.070312 175.984375 153.398438 C 173.640625 155.742188 170.535156 157.027344 167.222656 157.027344 C 163.910156 157.027344 160.789062 155.742188 158.464844 153.398438 C 156.121094 151.070312 154.832031 147.953125 154.832031 144.636719 L 149.597656 144.636719 C 149.597656 147.019531 150.054688 149.328125 150.992188 151.496094 C 151.871094 153.59375 153.140625 155.476562 154.761719 157.097656 C 156.382812 158.722656 158.269531 159.988281 160.367188 160.871094 C 162.535156 161.789062 164.84375 162.261719 167.222656 162.261719 C 169.601562 162.261719 171.910156 161.804688 174.078125 160.871094 C 176.175781 159.988281 178.0625 158.722656 179.683594 157.097656 C 181.304688 155.476562 182.574219 153.59375 183.457031 151.496094 C 184.371094 149.328125 184.847656 147.019531 184.847656 144.636719 C 184.847656 142.257812 184.390625 139.949219 183.472656 137.78125 Z M 183.472656 137.78125"/></g></svg>