<svg xmlns="http://www.w3.org/2000/svg" width="337.5" viewBox="0 0 337.5 315" height="315" version="1.0"><g><g><g><path d="M 31.390625 0 C 35.21875 0 38.660156 -0.765625 42.105469 -2.296875 C 45.550781 -3.828125 48.421875 -5.933594 51.101562 -8.804688 C 53.589844 -11.675781 55.503906 -15.121094 57.035156 -19.140625 C 58.375 -22.96875 58.949219 -27.371094 58.949219 -32.347656 C 58.949219 -36.558594 58.375 -40.382812 57.417969 -44.210938 C 56.269531 -47.847656 54.929688 -51.484375 53.398438 -54.929688 C 51.867188 -58.375 49.953125 -61.628906 47.847656 -64.882812 C 45.742188 -68.136719 43.636719 -71.390625 41.53125 -74.453125 C 38.46875 -78.855469 35.601562 -83.257812 33.113281 -87.46875 C 30.433594 -91.679688 28.710938 -95.890625 27.753906 -100.484375 C 27.371094 -101.441406 27.179688 -102.398438 27.179688 -103.546875 C 26.988281 -104.503906 26.988281 -105.460938 26.988281 -106.609375 C 26.988281 -110.628906 27.945312 -114.261719 29.859375 -117.707031 C 31.773438 -120.960938 34.644531 -122.683594 38.660156 -122.683594 C 40.957031 -122.683594 43.0625 -121.726562 45.167969 -120.195312 C 47.273438 -118.664062 48.996094 -116.941406 50.527344 -115.027344 L 58.566406 -121.535156 C 55.695312 -126.320312 52.058594 -130.339844 47.847656 -133.59375 C 43.445312 -136.847656 38.46875 -138.570312 32.921875 -138.570312 C 29.09375 -138.570312 25.648438 -137.613281 22.203125 -136.082031 C 18.757812 -134.550781 15.886719 -132.253906 13.398438 -129.382812 C 10.910156 -126.511719 8.996094 -123.066406 7.464844 -119.238281 C 5.933594 -115.21875 5.359375 -110.820312 5.742188 -106.035156 C 5.742188 -101.824219 6.125 -97.996094 7.273438 -94.359375 C 8.230469 -90.53125 9.570312 -87.085938 11.101562 -83.640625 C 12.632812 -80.195312 14.546875 -76.75 16.652344 -73.496094 C 18.757812 -70.242188 20.863281 -67.179688 23.160156 -64.117188 C 26.222656 -59.523438 28.902344 -55.3125 31.582031 -51.101562 C 34.070312 -46.890625 35.792969 -42.488281 36.941406 -38.085938 C 37.132812 -36.941406 37.324219 -35.984375 37.515625 -35.027344 C 37.515625 -33.878906 37.707031 -32.921875 37.707031 -31.964844 C 37.707031 -29.859375 37.324219 -27.753906 36.941406 -25.839844 C 36.367188 -23.925781 35.601562 -22.203125 34.644531 -20.671875 C 33.6875 -19.140625 32.539062 -17.800781 31.199219 -17.035156 C 29.667969 -16.078125 28.136719 -15.695312 26.222656 -15.695312 C 23.542969 -15.695312 21.246094 -16.460938 19.140625 -18.375 C 17.035156 -20.097656 15.3125 -21.820312 14.164062 -23.542969 L 6.125 -17.035156 C 6.507812 -16.078125 7.464844 -14.738281 8.804688 -12.824219 C 9.953125 -10.910156 11.675781 -9.1875 13.78125 -7.273438 C 15.886719 -5.359375 18.375 -3.636719 21.4375 -2.105469 C 24.308594 -0.574219 27.5625 0 31.390625 0 Z M 31.390625 0" transform="translate(8.601 141.791)"/></g></g></g><g><g><g><path d="M 24.308594 -101.632812 L 24.308594 0 L 42.679688 0 L 42.679688 -101.632812 L 61.246094 -101.632812 L 61.246094 -110.820312 L 5.742188 -110.820312 L 5.742188 -101.632812 Z M 24.308594 -101.632812" transform="translate(73.292 141.791)"/></g></g></g><g><g><g><path d="M 19.90625 -97.039062 L 3.828125 0 L 13.015625 0 L 16.84375 -23.160156 L 32.347656 -23.160156 L 36.175781 0 L 54.546875 0 L 36.175781 -110.820312 L 17.609375 -110.820312 Z M 30.816406 -32.347656 L 18.375 -32.347656 L 24.691406 -69.285156 Z M 30.816406 -32.347656" transform="translate(140.28 141.791)"/></g></g></g><g><g><g><path d="M 12.25 -97.039062 L 12.25 0 L 30.816406 0 L 30.816406 -46.125 C 31.964844 -46.125 32.730469 -46.125 33.496094 -46.316406 L 44.59375 0 L 63.160156 0 L 50.910156 -50.335938 C 54.929688 -52.632812 57.992188 -55.886719 60.097656 -60.480469 C 62.011719 -64.882812 63.160156 -70.816406 63.160156 -78.472656 C 63.160156 -84.597656 62.394531 -89.574219 61.054688 -93.785156 C 59.714844 -97.996094 57.609375 -101.25 54.929688 -103.738281 C 52.25 -106.226562 48.804688 -107.949219 44.785156 -109.097656 C 40.765625 -110.246094 36.175781 -110.820312 30.816406 -110.820312 L 7.65625 -110.820312 Z M 30.816406 -55.121094 L 30.816406 -102.015625 C 33.878906 -101.824219 36.367188 -101.058594 38.277344 -99.71875 C 40.191406 -98.378906 41.914062 -96.65625 43.0625 -94.359375 C 44.210938 -92.0625 44.976562 -89.574219 45.359375 -86.894531 C 45.742188 -84.214844 46.125 -81.34375 46.125 -78.472656 C 46.125 -75.410156 45.742188 -72.539062 45.359375 -69.859375 C 44.976562 -67.179688 44.210938 -64.691406 43.0625 -62.394531 C 41.914062 -60.097656 40.191406 -58.375 38.277344 -57.035156 C 36.367188 -55.695312 33.878906 -55.121094 30.816406 -55.121094 Z M 30.816406 -55.121094" transform="translate(198.655 141.791)"/></g></g></g><g><g><g><path d="M 24.308594 -101.632812 L 24.308594 0 L 42.679688 0 L 42.679688 -101.632812 L 61.246094 -101.632812 L 61.246094 -110.820312 L 5.742188 -110.820312 L 5.742188 -101.632812 Z M 24.308594 -101.632812" transform="translate(269.47 141.791)"/></g></g></g><g><g><g><path d="M 48.613281 0 C 52.441406 0 56.269531 -0.574219 60.097656 -1.722656 C 63.925781 -2.871094 67.371094 -4.976562 70.433594 -7.65625 L 70.433594 -60.097656 L 51.867188 -55.503906 L 51.867188 -9.953125 C 50.71875 -9.378906 49.570312 -9.1875 48.421875 -9.1875 C 45.359375 -9.1875 42.871094 -10.527344 40.957031 -13.398438 C 38.851562 -16.078125 37.132812 -19.332031 35.984375 -23.160156 C 34.070312 -28.902344 32.730469 -35.792969 31.964844 -44.019531 C 31.007812 -52.058594 30.625 -60.480469 30.625 -69.285156 C 30.625 -78.089844 31.007812 -86.511719 31.964844 -94.550781 C 32.730469 -102.589844 34.070312 -109.671875 35.984375 -115.410156 C 37.324219 -119.621094 39.042969 -123.066406 41.148438 -125.363281 C 43.253906 -127.660156 45.550781 -128.808594 47.847656 -128.808594 C 49.570312 -128.808594 51.292969 -127.851562 53.015625 -126.320312 C 54.738281 -124.597656 56.269531 -121.917969 57.800781 -118.472656 L 57.800781 -137.039062 C 55.886719 -137.613281 54.164062 -137.996094 52.632812 -138.1875 C 51.101562 -138.1875 49.570312 -138.378906 48.421875 -138.378906 C 33.878906 -138.378906 22.96875 -132.636719 16.078125 -121.535156 C 9.1875 -110.246094 5.742188 -92.828125 5.742188 -69.285156 C 5.742188 -60.480469 6.316406 -52.058594 7.464844 -43.828125 C 8.613281 -35.410156 10.910156 -28.136719 14.164062 -21.628906 C 17.417969 -15.121094 21.820312 -9.761719 27.371094 -5.933594 C 32.730469 -1.914062 39.808594 0 48.613281 0 Z M 48.613281 0" transform="translate(23.472 312.617)"/></g></g></g><g><g><g><path d="M 19.90625 -97.039062 L 3.828125 0 L 13.015625 0 L 16.84375 -23.160156 L 32.347656 -23.160156 L 36.175781 0 L 54.546875 0 L 36.175781 -110.820312 L 17.609375 -110.820312 Z M 30.816406 -32.347656 L 18.375 -32.347656 L 24.691406 -69.285156 Z M 30.816406 -32.347656" transform="translate(101.56 312.617)"/></g></g></g><g><g><g><path d="M 12.25 -97.039062 L 12.25 0 L 21.4375 0 L 21.4375 -69.285156 L 44.59375 0 L 53.78125 0 L 76.941406 -69.285156 L 76.941406 0 L 95.316406 0 L 95.316406 -110.820312 L 81.535156 -110.820312 L 53.78125 -27.753906 L 26.03125 -110.820312 L 7.65625 -110.820312 Z M 12.25 -97.039062" transform="translate(159.936 312.617)"/></g></g></g><g><g><g><path d="M 9.570312 -110.820312 L 9.570312 0 L 51.101562 0 L 51.101562 -9.1875 L 28.136719 -9.1875 L 28.136719 -60.097656 L 41.914062 -60.097656 L 46.507812 -69.285156 L 28.136719 -69.285156 L 28.136719 -101.632812 L 46.507812 -101.632812 L 51.101562 -110.820312 Z M 9.570312 -110.820312" transform="translate(265.777 312.617)"/></g></g></g></svg>